# xmcd CD database file
#
# Track frame offsets:
#	150
#	18500
#	51010
#	69937
#	88504
#	108086
#
# Disc length: 1980 seconds
#
# Revision: 0
# Processed by: cddbd v1.5.2PL0 Copyright (c) Steve Scherf et al.
# Submitted via: CDex 1.77
#
DISCID=3e07ba06
DTITLE=Eastern Sun - Beautiful Being
DYEAR=2005
DGENRE=New Age
TTITLE0=Beautiful Being (Original Edit)
TTITLE1=Beautiful Being (DJ Brian Seed Mix)
TTITLE2=Beautiful Being (Lord Runningclam Mix)
TTITLE3=Beautiful Being (Linnear Fractal Chill Mix)
TTITLE4=Intersubjective Collective
TTITLE5=Dematerialization
EXTD=YEAR: 2005
EXTT0=
EXTT1=
EXTT2=
EXTT3=
EXTT4=
EXTT5=
PLAYORDER=
